<svg width="450" height="120" viewBox="0 0 450 120" fill="none" xmlns="http://www.w3.org/2000/svg">
<g clip-path="url(#clip0_54_2012)">
<path d="M446.468 30.1218L223.234 0.502197L0 30.1218V56.7113L51.6505 49.8234V36.9757L223.234 14.2097L394.817 36.9757V42.0756L446.468 35.1863V30.1218Z" fill="#23155B"/>
<path d="M394.817 82.5051L223.234 105.271L51.6505 82.5051V71.1718L126.972 61.1261L189.46 69.4618L246.171 61.8969L183.678 53.5626L126.966 45.9962L70.2544 53.5626L51.6693 56.0417L0.0184174 62.931V89.3576L223.252 118.977L446.486 89.3576V62.7681L394.836 69.6574L394.817 82.5051Z" fill="#23155B"/>
<path d="M394.817 48.3041L269.528 65.0206L212.816 72.5856L269.528 80.1521L326.239 72.5856L394.799 63.4411L446.449 56.5518V41.4161L394.817 48.3041Z" fill="#8053FF"/>
</g>
<defs>
<clipPath id="clip0_54_2012">
<rect width="450" height="119" fill="white" transform="translate(0 0.5)"/>
</clipPath>
</defs>
</svg>
